<?xml version="1.0" encoding="utf-8"?>
<!-- Generator: Adobe Illustrator 15.0.0, SVG Export Plug-In  -->
<!DOCTYPE svg PUBLIC "-//W3C//DTD SVG 1.1//EN" "http://www.w3.org/Graphics/SVG/1.1/DTD/svg11.dtd" [
	<!ENTITY ns_flows "http://ns.adobe.com/Flows/1.0/">
]>
<svg version="1.1"
	 xmlns="http://www.w3.org/2000/svg" xmlns:xlink="http://www.w3.org/1999/xlink" xmlns:a="http://ns.adobe.com/AdobeSVGViewerExtensions/3.0/"
	 x="0px" y="0px" width="80px" height="80px" viewBox="0.038 0.004 80 80" enable-background="new 0.038 0.004 80 80"
	 xml:space="preserve">
<defs>
</defs>
<path fill="#AADEFF" stroke="#AADEFF" stroke-miterlimit="10" d="M52.338,14.204c1.7,0.8,10.8,7.9,12,10.9
	c1.2,2.9-0.5,11.6-1.3,16.2c-0.8,4.5-7.4,8.5-7.4,8.5h-20.2c0,0,0.2-2,0-3.2c-0.2-1.1-1.8-3.3-2.6-3.399c-0.8-0.101-2.3,2.6-2.3,2.6
	v3.8c0,0-9.8,0.7-12.9,0.7s-10.1,2.4-14.2-6.7c-4.1-9.2-2.9-18.7-2.3-19.7s11.6-9.7,11.6-9.7S50.638,13.404,52.338,14.204z
	 M10.438,21.604l-6.4,5.3c0,0-0.7,6.4,1.5,11.3c2.1,4.899,4.1,8,8.4,8.5c4.4,0.399,14.8,0.3,14.8,0.3v-2.8c0,0,1.6-4.1,3.9-4.1
	c2.2,0,4.1,3.2,4.6,4.8c0.4,1.6,0,2.199,0,2.199h17.399c0,0,5.2-5,5.9-7c0.7-2,1.5-10.7,1.1-12.5c-0.399-1.8-5.699-5.4-7.3-6
	c-1.6-0.6-22.3-1.1-24.4-1.1S11.738,20.504,10.438,21.604z"/>
<path fill="#AADEFF" stroke="#AADEFF" stroke-miterlimit="10" d="M68.238,0.504c-2.4,0.1-3.5,2.6-3.5,2.6s0.2,51.2,0,59.7
	s-12.8,11-15.3,11s-4.801-1.5-7.801-3.5c-2.1-1.399-3.8-4-4.6-5.5c2.2-1.3,3.7-3.8,3.7-6.6c0-4.2-3.4-7.7-7.7-7.7
	c-4.2,0-7.7,3.4-7.7,7.7c0,3.7,2.6,6.8,6.1,7.5c0.1,0.3,0.1,0.6,0.2,1c1.1,6,10.4,13.3,23.1,12.7
	c12.8-0.601,16.3-17.301,16.3-17.301s0-58.3,0-58.899C71.038,2.604,70.238,1.304,68.238,0.504z"/>
</svg>
