<?xml version="1.0" encoding="utf-8"?>
<!-- Generator: Adobe Illustrator 15.0.0, SVG Export Plug-In  -->
<!DOCTYPE svg PUBLIC "-//W3C//DTD SVG 1.1//EN" "http://www.w3.org/Graphics/SVG/1.1/DTD/svg11.dtd" [
	<!ENTITY ns_flows "http://ns.adobe.com/Flows/1.0/">
]>
<svg version="1.1"
	 xmlns="http://www.w3.org/2000/svg" xmlns:xlink="http://www.w3.org/1999/xlink" xmlns:a="http://ns.adobe.com/AdobeSVGViewerExtensions/3.0/"
	 x="0px" y="0px" width="80px" height="80px" viewBox="-4.409 -4.721 80 80" enable-background="new -4.409 -4.721 80 80"
	 xml:space="preserve">
<defs>
</defs>
<path fill="#2C5987" d="M69.937,2.973l-2.68-2.604c0,0-4.93-1.601-8.343,1.87C53.16,8.096,45.428,15.955,45.428,15.955L7.529,10.467
	l-4.76,4.362l28.099,16.288L20.579,41.214L3.312,42.379L0,43.577l17.688,9.793l9.441,17.805l1.301-3.349l1.097-16.575
	c0,0,29.034-29.518,40.421-41.096C72.729,7.328,69.937,2.973,69.937,2.973L69.937,2.973L69.937,2.973z M41.2,41.508l14.031,26.264
	l3.72-4.203l-3.872-34.791L41.2,41.508L41.2,41.508z"/>
</svg>
