<?xml version="1.0" encoding="utf-8"?>
<!-- Generator: Adobe Illustrator 15.0.0, SVG Export Plug-In  -->
<!DOCTYPE svg PUBLIC "-//W3C//DTD SVG 1.1//EN" "http://www.w3.org/Graphics/SVG/1.1/DTD/svg11.dtd" [
	<!ENTITY ns_flows "http://ns.adobe.com/Flows/1.0/">
]>
<svg version="1.1"
	 xmlns="http://www.w3.org/2000/svg" xmlns:xlink="http://www.w3.org/1999/xlink" xmlns:a="http://ns.adobe.com/AdobeSVGViewerExtensions/3.0/"
	 x="0px" y="0px" width="80px" height="80px" viewBox="0 -18.25 80 80" enable-background="new 0 -18.25 80 80"
	 xml:space="preserve">
<defs>
</defs>
<path fill="#AADEFF" stroke="#AADEFF" stroke-miterlimit="10" d="M0.515,2.609c0,0,4.4-2.1,7.7-2.1c3.3,0,9.3,2.7,10.7,2.8
	c1.5,0.1,8-2.8,10.8-2.8c2.8,0,7.6,2.6,9.8,2.9c2.2,0.2,6.7-2.6,10.299-2.9c3.602-0.2,6.602,2.9,9.301,2.9s7.4-2.8,11.801-2.9
	c4.398-0.1,6.8,2.9,8.898,2.3c0.201,1.4,0,6.2,0,6.2s-6.6-3.1-8.699-3c-2.1,0.1-7.6,3.1-10.399,3.1c-2.799,0-7.2-1.9-9.8-1.9
	c-2.602,0-7.9,2.6-10.601,2.5c-2.7-0.1-6.2-2.4-9.4-2.4c-3.3,0-7.6,2.5-10.7,2.4c-3.1-0.1-5-2.6-9.1-2.4c-4.2,0.2-9.9,2.7-10.6,2.4
	C0.615,7.509,0.515,2.609,0.515,2.609z"/>
<path fill="#AADEFF" stroke="#AADEFF" stroke-miterlimit="10" d="M0.515,14.81c0,0,4.4-2.1,7.7-2.1c3.3,0,9.3,2.7,10.7,2.8
	c1.5,0.1,8-2.8,10.8-2.8c2.8,0,7.6,2.6,9.8,2.8c2.2,0.2,6.7-2.6,10.299-2.8c3.602-0.2,6.602,2.9,9.301,2.9s7.4-2.8,11.801-2.9
	c4.398-0.1,6.8,2.9,8.898,2.3c0.201,1.4,0,6.2,0,6.2s-6.6-3.2-8.799-3.1c-2.101,0.1-7.601,3.1-10.4,3.1
	c-2.801,0-7.199-1.9-9.801-1.9c-2.6,0-7.898,2.6-10.6,2.5c-2.7-0.1-6.2-2.4-9.4-2.4c-3.3,0-7.6,2.5-10.7,2.4c-3.1-0.1-5-2.6-9.1-2.4
	c-4.1,0.2-9.8,2.8-10.5,2.4C0.615,19.709,0.515,14.81,0.515,14.81z"/>
<path fill="#AADEFF" stroke="#AADEFF" stroke-miterlimit="10" d="M0.515,26.91c0,0,4.4-2.101,7.7-2.101c3.3,0,9.3,2.7,10.7,2.801
	c1.5,0.1,8-2.801,10.8-2.801c2.8,0,7.6,2.601,9.8,2.801c2.2,0.199,6.7-2.601,10.299-2.801c3.602-0.199,6.602,2.9,9.301,2.9
	s7.4-2.8,11.801-2.9c4.398-0.1,6.8,2.9,8.898,2.301c0.201,1.399,0,6.199,0,6.199s-6.6-3.199-8.799-3.1
	c-2.101,0.1-7.601,3.1-10.4,3.1c-2.801,0-7.199-1.899-9.801-1.899c-2.6,0-7.898,2.6-10.6,2.5c-2.701-0.101-6.2-2.4-9.4-2.4
	c-3.3,0-7.6,2.5-10.7,2.4c-3.1-0.101-5-2.601-9.1-2.4c-4.1,0.3-9.8,2.8-10.5,2.5C0.615,31.809,0.515,26.91,0.515,26.91z"/>
<path fill="#AADEFF" stroke="#AADEFF" stroke-miterlimit="10" d="M0.515,39.11c0,0,4.4-2.101,7.7-2.101c3.3,0,9.3,2.7,10.7,2.8
	c1.5,0.101,8-2.8,10.8-2.8c2.8,0,7.6,2.601,9.8,2.8c2.2,0.2,6.7-2.6,10.299-2.8c3.602-0.2,6.602,2.9,9.301,2.9s7.4-2.8,11.801-2.9
	c4.398-0.1,6.8,2.9,8.898,2.3c0.201,1.4,0,6.2,0,6.2s-6.6-3.2-8.799-3.1c-2.101,0.1-7.601,3.1-10.4,3.1
	c-2.801,0-7.199-1.899-9.801-1.899c-2.6,0-7.898,2.601-10.6,2.5c-2.7-0.101-6.2-2.399-9.4-2.399c-3.3,0-7.6,2.5-10.7,2.399
	c-3.1-0.101-5-2.601-9.1-2.399s-9.8,2.8-10.5,2.399C0.615,44.009,0.515,39.11,0.515,39.11z"/>
</svg>
