<?xml version="1.0" encoding="utf-8"?>
<!-- Generator: Adobe Illustrator 15.0.0, SVG Export Plug-In  -->
<!DOCTYPE svg PUBLIC "-//W3C//DTD SVG 1.1//EN" "http://www.w3.org/Graphics/SVG/1.1/DTD/svg11.dtd" [
	<!ENTITY ns_flows "http://ns.adobe.com/Flows/1.0/">
]>
<svg version="1.1"
	 xmlns="http://www.w3.org/2000/svg" xmlns:xlink="http://www.w3.org/1999/xlink" xmlns:a="http://ns.adobe.com/AdobeSVGViewerExtensions/3.0/"
	 x="0px" y="0px" width="80px" height="80px" viewBox="-1.563 -7.37 80 80" enable-background="new -1.563 -7.37 80 80"
	 xml:space="preserve">
<defs>
</defs>
<path fill="#2C5987" d="M30.57,10.23v10.224c0,1.928-1.569,3.497-3.497,3.497h-5.974v-2.369h5.974c0.622,0,1.128-0.505,1.128-1.127
	c0.12-9.517,0.051-9.512,0-10.225c-0.175-2.457-0.814-5.09-4.049-8.982L26.464,0C26.464,0,30.57,5.346,30.57,10.23L30.57,10.23z
	 M20.448,23.951h-3.65c-0.706,0-1.281-0.531-1.281-1.184c0-0.653,0.575-1.185,1.281-1.185h3.65V23.951L20.448,23.951z
	 M29.284,10.423c-0.735-3.62-4.291-5.454-10.575-5.454c-6.285,0-9.84,1.834-10.575,5.454c-0.743,0.068-1.326,1.698-1.326,2.458
	c0,0.75,0.569,2.374,1.298,2.456c0.385,2.22,1.634,4.401,2.646,5.007c1.157,0.691,2.779,1.568,8.03,1.568
	c5.025,0,6.756-0.925,8.053-1.661c0.776-0.456,2.089-2.561,2.483-4.915c0.727-0.084,1.294-1.706,1.294-2.455
	C30.611,12.121,30.026,10.491,29.284,10.423L29.284,10.423z M20.173,18.566h-2.711c-0.277,0-0.501-0.224-0.501-0.501
	c0,0,0.877-2.734,0.883-2.746c0.084-0.16,0.251-0.27,0.444-0.27h1.059c0.194,0,0.362,0.11,0.446,0.271l0.881,2.744
	C20.675,18.342,20.451,18.566,20.173,18.566L20.173,18.566z M24.74,18.158c-1.583,0-2.372-1.116-3.207-2.297
	c-0.737-1.042-1.496-2.115-2.823-2.116c-1.342,0.001-2.098,1.075-2.83,2.115c-0.834,1.183-1.621,2.299-3.202,2.299
	c-1.041,0-3.007-0.894-3.007-4.273c0-1.292,0-5.223,9.037-5.223c9.036,0,9.036,3.931,9.036,5.223
	C27.745,17.264,25.779,18.158,24.74,18.158L24.74,18.158z"/>
<polygon fill="#2C5987" points="19.395,50.689 9.531,50.689 9.687,65.26 16.886,65.26 17.351,57.319 19.529,57.226 21.608,57.316 
	22.06,65.259 29.064,65.259 29.215,50.687 19.395,50.687 "/>
<path fill="#2C5987" d="M38.476,57.618c-0.169-0.466-0.526-21.295-0.707-21.916c-0.182-0.622-5.342-9.468-8.053-10.09
	c-1.295-0.296-5.624-0.67-10.089-0.708v0c-0.004,0-0.01,0-0.014,0c-0.072-0.001-0.145-0.001-0.217-0.002v0.003
	c-4.592,0.039-9.046,0.412-10.378,0.71c-2.787,0.621-8.091,9.468-8.278,10.09c-0.186,0.621-0.552,21.449-0.727,21.915
	c-0.174,0.467,1.568,2.177,3.658,2.177c2.09,0,3.484-2.177,3.484-2.177l0.088-21.57l2.451,0.105l-0.24,11.634l10.173-0.054v-0.001
	l9.663,0.054l-0.233-11.635l2.384-0.105l0.086,21.572c0,0,1.355,2.175,3.389,2.175C36.95,59.794,38.645,58.085,38.476,57.618z"/>
<path fill="#2C5987" d="M46.273,10.23v10.224c0,1.928,1.6,3.497,3.565,3.497h6.09v-2.369h-6.09c-0.635,0-1.15-0.506-1.15-1.128
	c-0.122-9.517-0.053-9.511,0-10.224c0.178-2.457,0.829-5.09,4.127-8.982L50.459,0C50.459,0,46.273,5.346,46.273,10.23L46.273,10.23z
	 M56.591,23.951h3.722c0.72,0,1.306-0.531,1.306-1.184c0-0.653-0.586-1.185-1.306-1.185h-3.722V23.951L56.591,23.951z
	 M47.584,10.423c0.75-3.62,4.374-5.454,10.782-5.454c6.407,0,10.03,1.834,10.778,5.454c0.759,0.068,1.354,1.698,1.354,2.458
	c0,0.75-0.581,2.374-1.323,2.456c-0.394,2.22-1.666,4.401-2.698,5.007c-1.18,0.691-2.833,1.568-8.186,1.568
	c-5.124,0-6.887-0.925-8.21-1.661c-0.791-0.456-2.129-2.561-2.531-4.915c-0.741-0.084-1.318-1.706-1.318-2.455
	C46.231,12.121,46.827,10.491,47.584,10.423L47.584,10.423z M56.87,18.566h2.765c0.283,0,0.512-0.224,0.512-0.501
	c0,0-0.894-2.734-0.9-2.746c-0.086-0.16-0.256-0.269-0.453-0.269h-1.079c-0.198,0-0.37,0.109-0.454,0.271l-0.9,2.744
	C56.359,18.342,56.589,18.566,56.87,18.566L56.87,18.566z M52.217,18.158c1.613,0,2.418-1.116,3.268-2.297
	c0.753-1.042,1.526-2.115,2.879-2.116c1.367,0.001,2.14,1.075,2.885,2.115c0.851,1.183,1.652,2.299,3.265,2.299
	c1.061,0,3.064-0.894,3.064-4.273c0-1.292,0-5.223-9.211-5.223c-9.213,0-9.213,3.931-9.213,5.223
	C49.153,17.264,51.157,18.158,52.217,18.158L52.217,18.158z"/>
<polygon fill="#2C5987" points="57.666,50.689 67.721,50.689 67.563,65.26 60.222,65.26 59.749,57.319 57.528,57.226 55.409,57.316 
	54.949,65.259 47.808,65.259 47.654,50.687 57.666,50.687 "/>
<path fill="#2C5987" d="M38.213,57.618c0.173-0.466,0.537-21.295,0.721-21.916c0.185-0.622,5.445-9.468,8.21-10.09
	c1.318-0.296,5.731-0.67,10.284-0.708v0c0.006,0,0.01,0,0.015,0c0.074-0.001,0.148-0.001,0.223-0.002v0.003
	c4.682,0.039,9.222,0.412,10.579,0.71c2.841,0.621,8.248,9.468,8.439,10.09c0.188,0.621,0.563,21.449,0.74,21.915
	c0.177,0.467-1.598,2.176-3.729,2.176c-2.132,0-3.553-2.176-3.553-2.176l-0.091-21.57l-2.499,0.104l0.245,11.635l-10.37-0.055
	v-0.001l-9.852,0.054l0.238-11.634l-2.432-0.105l-0.088,21.571c0,0-1.382,2.176-3.454,2.176
	C39.769,59.794,38.041,58.085,38.213,57.618z"/>
</svg>
