<?xml version="1.0" encoding="utf-8"?>
<!DOCTYPE svg PUBLIC "-//W3C//DTD SVG 1.1//EN" "http://www.w3.org/Graphics/SVG/1.1/DTD/svg11.dtd">
<svg version="1.1" id="图形" xmlns="http://www.w3.org/2000/svg" xmlns:xlink="http://www.w3.org/1999/xlink" x="0px" y="0px" width="1024px" height="1024px" viewBox="0 0 1024 1024" enable-background="new 0 0 1024 1024" xml:space="preserve">
  <path fill="#ecf0f1" d="M465.1264 55.682816l252.552192-197.799936c4.145152-3.212288 6.653952-4.866048 9.101312-4.866048 6.98368 0 9.095168 4.804608 9.095168 12.665856l0 187.09504c0 13.2352 8.715264 23.733248 20.420608 23.733248l91.804672 0.038912c81.468416 0 111.213568 53.60128 111.213568 53.60128L959.31392 688.911104c0 0-32.002048 58.07104-111.727616 58.07104L177.276928 746.982144c-81.47968 0-111.732736-58.07104-111.732736-58.07104l0-558.759936c0 0 35.885056-53.60128 112.123904-53.60128l223.47776-0.016384C401.144832 76.533504 447.879168 75.220736 465.1264 55.682816z" transform="translate(0, 812) scale(1, -1)"/>
</svg>
