<?xml version="1.0" encoding="utf-8"?>
<!-- Generator: Adobe Illustrator 15.0.0, SVG Export Plug-In  -->
<!DOCTYPE svg PUBLIC "-//W3C//DTD SVG 1.1//EN" "http://www.w3.org/Graphics/SVG/1.1/DTD/svg11.dtd" [
	<!ENTITY ns_flows "http://ns.adobe.com/Flows/1.0/">
]>
<svg version="1.1"
	 xmlns="http://www.w3.org/2000/svg" xmlns:xlink="http://www.w3.org/1999/xlink" xmlns:a="http://ns.adobe.com/AdobeSVGViewerExtensions/3.0/"
	 x="0px" y="0px" width="80px" height="80px" viewBox="-0.703 0 80 80" enable-background="new -0.703 0 80 80"
	 xml:space="preserve">
<defs>
</defs>
<path fill="#AADEFF" stroke="#AADEFF" stroke-miterlimit="10" d="M75.446,46.058l-7.032,8.517l2.773,0.298
	c0,0-8.814,7.131-16.738,7.626c-7.923,0.396-11.784-10.102-11.784-10.102V34.768h10.597v-5.348H43.16v-7.032l0,0
	c4.356-1.486,7.527-5.745,7.527-10.597c0-6.239-4.952-11.291-11.191-11.291h-0.099h-0.099c-6.239,0-11.29,5.051-11.29,11.291
	c0,4.952,3.169,9.111,7.626,10.597l0,0v7.032H25.432v5.348h10.696v17.629c0,0-3.862,10.597-11.885,10.102
	c-8.022-0.495-16.836-7.626-16.836-7.626l2.872-0.298l-7.131-8.518l-2.476,10.3l3.169-0.692c0,0,6.141,10.596,15.252,14.755
	c9.112,4.16,18.52,9.31,20.402,9.606l0,0l0,0c1.881-0.297,11.093-5.446,20.203-9.606c9.113-4.159,15.154-14.755,15.154-14.755
	l3.07,0.692L75.446,46.058z M39.395,17.931h-0.099c-3.367,0-6.14-2.773-6.14-6.14c0-3.368,2.773-6.14,6.14-6.14h0.099h0.099
	c3.367,0,6.042,2.772,6.042,6.14c0,3.367-2.675,6.14-6.042,6.14H39.395z"/>
</svg>
