<?xml version="1.0" encoding="utf-8"?>
<!-- Generator: Adobe Illustrator 15.0.0, SVG Export Plug-In  -->
<!DOCTYPE svg PUBLIC "-//W3C//DTD SVG 1.1//EN" "http://www.w3.org/Graphics/SVG/1.1/DTD/svg11.dtd" [
	<!ENTITY ns_flows "http://ns.adobe.com/Flows/1.0/">
]>
<svg version="1.1"
	 xmlns="http://www.w3.org/2000/svg" xmlns:xlink="http://www.w3.org/1999/xlink" xmlns:a="http://ns.adobe.com/AdobeSVGViewerExtensions/3.0/"
	 x="0px" y="0px" width="80px" height="80px" viewBox="0.015 0.009 80 80" enable-background="new 0.015 0.009 80 80"
	 xml:space="preserve">
<defs>
</defs>
<path fill="#AADEFF" stroke="#AADEFF" stroke-miterlimit="10" d="M0.515,2.609c0,0,4.4-2.1,7.7-2.1c3.3,0,9.3,2.7,10.7,2.8
	c1.5,0.1,8-2.8,10.8-2.8c2.8,0,7.6,2.6,9.8,2.9c2.2,0.2,6.7-2.6,10.3-2.9c3.601-0.2,6.601,2.9,9.3,2.9c2.7,0,7.4-2.8,11.801-2.9
	c4.399-0.1,6.8,2.9,8.899,2.3c0.2,1.4,0,6.2,0,6.2s-6.6-3.1-8.7-3c-2.1,0.1-7.6,3.1-10.399,3.1s-7.2-1.9-9.8-1.9
	c-2.601,0-7.9,2.6-10.601,2.5c-2.7-0.1-6.2-2.4-9.4-2.4c-3.3,0-7.6,2.5-10.7,2.4c-3.1-0.1-5-2.6-9.1-2.4c-4.2,0.2-9.9,2.7-10.6,2.4
	C0.615,7.509,0.515,2.609,0.515,2.609z"/>
<path fill="#AADEFF" stroke="#AADEFF" stroke-miterlimit="10" d="M0.515,14.809c0,0,4.4-2.1,7.7-2.1c3.3,0,9.3,2.7,10.7,2.8
	c1.5,0.1,8-2.8,10.8-2.8c2.8,0,7.6,2.6,9.8,2.8s6.7-2.6,10.3-2.8c3.601-0.2,6.601,2.9,9.3,2.9c2.7,0,7.4-2.8,11.801-2.9
	c4.399-0.1,6.8,2.9,8.899,2.3c0.2,1.4,0,6.2,0,6.2s-6.6-3.2-8.8-3.1c-2.1,0.1-7.6,3.1-10.4,3.1c-2.8,0-7.199-1.9-9.8-1.9
	c-2.6,0-7.899,2.6-10.6,2.5c-2.7-0.1-6.2-2.4-9.4-2.4c-3.3,0-7.6,2.5-10.7,2.4c-3.1-0.1-5-2.6-9.1-2.4c-4.1,0.2-9.8,2.8-10.5,2.4
	C0.615,19.709,0.515,14.809,0.515,14.809z"/>
<path fill="#AADEFF" stroke="#AADEFF" stroke-miterlimit="10" d="M0.515,26.909c0,0,4.4-2.1,7.7-2.1c3.3,0,9.3,2.7,10.7,2.8
	c1.5,0.1,8-2.8,10.8-2.8c2.8,0,7.6,2.6,9.8,2.8c2.2,0.2,6.7-2.6,10.3-2.8c3.601-0.2,6.601,2.9,9.3,2.9c2.7,0,7.4-2.8,11.801-2.9
	c4.399-0.1,6.8,2.9,8.899,2.3c0.2,1.4,0,6.2,0,6.2s-6.6-3.2-8.8-3.1c-2.1,0.1-7.6,3.1-10.4,3.1c-2.8,0-7.199-1.9-9.8-1.9
	c-2.6,0-7.899,2.6-10.6,2.5s-6.2-2.4-9.4-2.4c-3.3,0-7.6,2.5-10.7,2.4s-5-2.6-9.1-2.4c-4.1,0.3-9.8,2.8-10.5,2.5
	C0.615,31.809,0.515,26.909,0.515,26.909z"/>
<path fill="#AADEFF" stroke="#AADEFF" stroke-miterlimit="10" d="M0.515,39.109c0,0,4.4-2.1,7.7-2.1c3.3,0,9.3,2.7,10.7,2.8
	c1.5,0.1,8-2.8,10.8-2.8c2.8,0,7.6,2.6,9.8,2.8c2.2,0.2,6.7-2.6,10.3-2.8c3.601-0.2,6.601,2.9,9.3,2.9c2.7,0,7.4-2.8,11.801-2.9
	c4.399-0.1,6.8,2.9,8.899,2.3c0.2,1.4,0,6.2,0,6.2s-6.6-3.2-8.8-3.1c-2.1,0.1-7.6,3.1-10.4,3.1c-2.8,0-7.199-1.9-9.8-1.9
	c-2.6,0-7.899,2.601-10.6,2.5c-2.7-0.1-6.2-2.399-9.4-2.399c-3.3,0-7.6,2.5-10.7,2.399c-3.1-0.1-5-2.6-9.1-2.399
	s-9.8,2.8-10.5,2.399C0.615,44.009,0.515,39.109,0.515,39.109z"/>
</svg>
