<?xml version="1.0" encoding="utf-8"?>
<!-- Generator: Adobe Illustrator 15.0.0, SVG Export Plug-In  -->
<!DOCTYPE svg PUBLIC "-//W3C//DTD SVG 1.1//EN" "http://www.w3.org/Graphics/SVG/1.1/DTD/svg11.dtd" [
	<!ENTITY ns_flows "http://ns.adobe.com/Flows/1.0/">
]>
<svg version="1.1"
	 xmlns="http://www.w3.org/2000/svg" xmlns:xlink="http://www.w3.org/1999/xlink" xmlns:a="http://ns.adobe.com/AdobeSVGViewerExtensions/3.0/"
	 x="0px" y="0px" width="80px" height="80px" viewBox="-0.841 -9.375 80 80" enable-background="new -0.841 -9.375 80 80"
	 xml:space="preserve">
<defs>
</defs>
<path fill="#2C5987" d="M72.671,21.47c-3.304,0-5.981,2.678-5.981,5.981s2.678,5.98,5.981,5.98c3.302,0,5.979-2.677,5.979-5.98
	S75.973,21.47,72.671,21.47z M72.671,31.905c-2.462,0-4.455-1.994-4.455-4.454c0-2.459,1.993-4.454,4.455-4.454
	c2.459,0,4.452,1.995,4.452,4.454C77.124,29.911,75.13,31.905,72.671,31.905z"/>
<path fill="#2C5987" d="M38.694,7.063c0.242,2.182,2.181,3.96,4.444,3.96c2.265,0,4.122-1.778,4.444-3.96h3.234v1.132
	c0,0-2.507,1.05-3.557,2.263c-1.051,1.212-1.535,2.505-1.535,2.99l-0.01,4.147H62.04l0.011-4.066c0,0-1.616-5.01-5.414-5.09
	c0.161-2.263,0-4.768,0-4.768l3.313-0.243l-0.082-2.424c0,0-4.364-1.212-6.545-0.969c0,0-5.497,0.484-5.901,1.05
	c-0.403,0.565,0,2.343,0,2.343h3.234l0.079,2.183h-3.231c-0.405-2.021-2.183-3.557-4.363-3.557c-2.184,0-3.961,1.536-4.365,3.557
	h-3.314c0-1.131-0.081-1.939-0.081-1.939l3.314-0.243l-0.081-2.424c0,0-4.364-1.212-6.547-0.969c0,0-5.495,0.484-5.9,1.05
	c-0.403,0.565,0,2.343,0,2.343H29.4l0.162,4.769c0,0-2.505,1.05-3.556,2.263c-1.051,1.213-1.536,2.505-1.536,2.99l-0.009,4.147
	h16.325l0.01-4.066c0,0-1.617-5.01-5.416-5.09c0-0.485,0.082-0.97,0.082-1.375H38.694L38.694,7.063z M43.057,3.103
	c1.86,0,3.395,1.536,3.395,3.475c0,1.859-1.534,3.395-3.395,3.395c-1.939,0-3.393-1.535-3.393-3.395
	C39.664,4.638,41.118,3.103,43.057,3.103z"/>
<path fill="#2C5987" d="M40.79,44.235l-0.014-23.922H24.452c0,0-0.025,13.443-0.023,23.922H40.79z M27.446,27.789
	c0-0.601,0.486-1.088,1.087-1.088h7.884c0.6,0,1.088,0.487,1.088,1.088v5.583c0,0.601-0.488,1.087-1.088,1.087h-7.884
	c-0.601,0-1.087-0.486-1.087-1.087V27.789L27.446,27.789z"/>
<path fill="#2C5987" d="M24.43,46.818c0.003,4.885,0.015,8.703,0.04,9.462c0.082,2.426,3.071,3.396,3.071,3.396h9.698
	c2.182,0,3.556-3.557,3.556-3.557l-0.005-9.301H24.43L24.43,46.818z"/>
<path fill="#2C5987" d="M62.043,44.235l-0.012-23.922H45.707c0,0-0.024,13.443-0.022,23.922H62.043z M48.702,27.789
	c0-0.601,0.487-1.088,1.087-1.088h7.884c0.601,0,1.089,0.487,1.089,1.088v5.583c0,0.601-0.488,1.087-1.089,1.087h-7.884
	c-0.6,0-1.087-0.486-1.087-1.087V27.789L48.702,27.789z"/>
<path fill="#2C5987" d="M45.686,46.818c0.002,4.885,0.014,8.703,0.039,9.462c0.081,2.426,3.071,3.396,3.071,3.396h9.697
	c2.184,0,3.557-3.557,3.557-3.557l-0.004-9.301H45.686L45.686,46.818z"/>
<path fill="#2C5987" d="M72.783,21.942c-0.001,0.013-0.004,0.026-0.004,0.039h0.91c0.543-5.418-0.53-10.083-3.104-13.495
	c-2.766-3.664-5.595-5.364-7.481-6.146c-2.074-0.859-3.491-0.833-3.551-0.832l0.022,0.906c0.014,0,1.324-0.017,3.236,0.786
	c1.77,0.742,4.427,2.356,7.05,5.831C72.948,13.121,73.154,18.31,72.783,21.942z"/>
<path fill="#2C5987" d="M19.524,41.248c-0.198-0.545,0.297-1.436-0.495-1.781c-0.792-0.348-2.948,0.069-2.948,0.069
	s-2.101-1.407-2.596-1.407S12,39.416,12,39.416s-1.04,11.243-0.396,11.413c0.644,0.171,3.614-0.057,4.307,1.022
	C16.603,52.93,19.722,41.792,19.524,41.248z M12.933,49.621l-0.434-0.027l0.585-9.16l0.434,0.027L12.933,49.621z M13.903,49.753
	l1.396-9.074l0.43,0.066l-1.397,9.074L13.903,49.753z M15.526,50.182l-0.424-0.095l2.003-8.959l0.425,0.095L15.526,50.182z"/>
<path fill="#2C5987" d="M19.475,42.535c-0.1,1.188-1.733,9.059-3.47,10.09c-1.877-1.208-4.699-0.82-5.095-0.92
	s0.198-8.526,0.545-9.416c0.346-0.893,0.296-1.438,0.296-1.686c0-0.247-0.592-0.119-0.592-0.119s-1.091,0.764-1.389,4.724
	c-0.297,3.961,0,13.467,0,13.467s0,3.414,0.545,3.959c0.544,0.545,2.079,0.941,2.624,0.247c0.545-0.692,3.218-6.435,3.713-7.573
	c0.495-1.139,2.228-5.396,2.822-7.029c0.593-1.634,1.088-6.189,1.088-6.189S19.574,41.347,19.475,42.535z M13.088,59.961
	c-0.594,0.692-2.079,0.891-2.376-0.941c-0.297-1.832,2.376-4.752,2.376-4.752C13.039,54.761,13.682,59.269,13.088,59.961z"/>
<path fill="#2C5987" d="M8.037,35.576c-0.412-0.407-0.347-1.425-1.21-1.398c-0.864,0.026-2.635,1.325-2.635,1.325
	s-2.5-0.37-2.948-0.158s-0.79,1.8-0.79,1.8s3.875,10.604,4.53,10.483c0.655-0.121,3.241-1.601,4.33-0.922
	C10.402,47.384,8.449,35.982,8.037,35.576z M5.668,45.966l-0.404,0.16l-3.396-8.529l0.405-0.16L5.668,45.966z M6.601,45.668
	l-2.625-8.796l0.417-0.125l2.625,8.797L6.601,45.668z M8.251,45.363l-0.424,0.096l-2.027-8.955l0.424-0.096L8.251,45.363z"/>
<path fill="#2C5987" d="M8.543,36.759c0.42,1.117,2.315,8.929,1.187,10.604c-2.213-0.286-4.598,1.272-4.998,1.354
	c-0.4,0.078-3.473-7.792-3.542-8.744c-0.068-0.954-0.347-1.426-0.453-1.648c-0.106-0.225-0.586,0.145-0.586,0.145
	s-0.659,1.157,0.769,4.863s5.768,12.167,5.768,12.167s1.463,3.087,2.188,3.347c0.725,0.259,2.282-0.041,2.477-0.901
	c0.196-0.858,0.151-7.193,0.111-8.433c-0.041-1.241-0.298-5.831-0.461-7.563c-0.163-1.729-1.667-6.059-1.667-6.059
	S8.124,35.644,8.543,36.759z M10.237,55.242c-0.239,0.881-1.497,1.695-2.55,0.168c-1.053-1.528,0.111-5.311,0.111-5.311
	C7.966,50.566,10.477,54.362,10.237,55.242z"/>
</svg>
