<?xml version="1.0" encoding="utf-8"?>
<!-- Generator: Adobe Illustrator 15.0.0, SVG Export Plug-In  -->
<!DOCTYPE svg PUBLIC "-//W3C//DTD SVG 1.1//EN" "http://www.w3.org/Graphics/SVG/1.1/DTD/svg11.dtd" [
	<!ENTITY ns_flows "http://ns.adobe.com/Flows/1.0/">
]>
<svg version="1.1"
	 xmlns="http://www.w3.org/2000/svg" xmlns:xlink="http://www.w3.org/1999/xlink" xmlns:a="http://ns.adobe.com/AdobeSVGViewerExtensions/3.0/"
	 x="0px" y="0px" width="80px" height="80px" viewBox="0.044 0.038 80 80" enable-background="new 0.044 0.038 80 80"
	 xml:space="preserve">
<defs>
</defs>
<polygon fill="#AADEFF" stroke="#AADEFF" stroke-miterlimit="10" points="24.645,6.238 24.645,8.837 23.245,8.837 23.245,9.938 
	24.645,9.938 25.544,9.938 25.544,8.837 25.544,6.238 "/>
<path fill="#AADEFF" stroke="#AADEFF" stroke-miterlimit="10" d="M0.544,74.538c0.1,3.2,4,4.5,4,4.5s9.9,0,12.7,0
	c2.9,0,4.7-4.7,4.7-4.7v-28h-21.4C0.544,46.337,0.444,71.337,0.544,74.538z"/>
<path fill="#AADEFF" stroke="#AADEFF" stroke-miterlimit="10" d="M19.245,9.837c0.4,2.9,2.8,5.2,5.8,5.2s5.5-2.3,5.8-5.2h4.2v1.5
	c0,0-3.3,1.4-4.7,3c-1.4,1.6-2,3.3-2,3.9c0,0.6,0,18.7,0,18.7h21.4v-18.6c0,0-2.101-6.6-7.101-6.7c0.2-3,0-6.3,0-6.3l4.601-0.3
	l-0.101-3.2c0,0-5.8-1.6-8.6-1.3c0,0-7.2,0.6-7.8,1.4c-0.5,0.7,0,3.1,0,3.1h4.3l0.1,2.9h-4.2c-0.6-2.7-2.9-4.7-5.8-4.7
	c-2.8,0-5.2,2-5.8,4.7h-4.3c0-1.5-0.1-2.6-0.1-2.6l4.3-0.3l-0.1-3.2c0,0-5.8-1.6-8.6-1.3c0,0-7.2,0.6-7.8,1.4
	c-0.5,0.8,0.1,3.1,0.1,3.1h4.2l0.2,6.3c0,0-3.3,1.4-4.7,3c-1.4,1.6-2,3.3-2,3.9c0,0.6,0,18.7,0,18.7h21.5v-18.6c0,0-2.1-6.6-7.1-6.7
	c0-0.6,0.1-1.2,0.1-1.8H19.245z M24.944,4.738c2.5,0,4.5,2,4.5,4.5s-2,4.5-4.5,4.5s-4.5-2-4.5-4.5
	C20.544,6.738,22.544,4.738,24.944,4.738z"/>
<path fill="#AADEFF" stroke="#AADEFF" stroke-miterlimit="10" d="M28.544,46.337c0,0-0.1,25,0,28.2s4,4.5,4,4.5s9.9,0,12.7,0
	c2.899,0,4.7-4.7,4.7-4.7v-28H28.544z"/>
<polygon fill="#AADEFF" stroke="#AADEFF" stroke-miterlimit="10" points="24.645,6.238 24.645,8.837 23.245,8.837 23.245,9.938 
	24.645,9.938 25.544,9.938 25.544,8.837 25.544,6.238 "/>
<path fill="#AADEFF" stroke="#AADEFF" stroke-miterlimit="10" d="M0.544,74.438c0.1,3.199,4,4.5,4,4.5s9.9,0,12.7,0
	c2.9,0,4.7-4.7,4.7-4.7v-27.9h-21.4C0.544,46.337,0.444,71.238,0.544,74.438z"/>
<path fill="#AADEFF" stroke="#AADEFF" stroke-miterlimit="10" d="M19.245,9.837c0.3,2.9,2.8,5.2,5.8,5.2s5.5-2.3,5.8-5.2h4.2v1.5
	c0,0-3.3,1.4-4.7,3c-1.4,1.6-2,3.3-2,3.9c0,0.6,0,18.7,0,18.7h21.4v-18.6c0,0-2.101-6.6-7.101-6.7c0.2-3,0-6.3,0-6.3l4.5-0.3
	l-0.1-3.2c0,0-5.8-1.6-8.6-1.3c0,0-7.2,0.6-7.7,1.4c-0.5,0.7,0,3.1,0,3.1h4.2l0.1,2.9h-4.2c-0.6-2.7-2.9-4.7-5.7-4.7
	c-2.8,0-5.2,2-5.7,4.7h-4.4c0-1.5-0.1-2.6-0.1-2.6l4.3-0.3l-0.1-3.2c0,0-5.8-1.6-8.6-1.3c0,0-7.2,0.6-7.7,1.4c-0.6,0.8,0,3.1,0,3.1
	h4.2l0.2,6.3c0,0-3.3,1.4-4.7,3c-1.4,1.6-2,3.3-2,3.9c0,0.6,0,18.7,0,18.7h21.5v-18.6c0,0-2.1-6.6-7.1-6.7c0-0.6,0.1-1.2,0.1-1.8
	H19.245z M24.944,4.738c2.5,0,4.5,2,4.5,4.5s-2,4.5-4.5,4.5s-4.5-2-4.5-4.5S22.444,4.738,24.944,4.738z"/>
<path fill="#AADEFF" stroke="#AADEFF" stroke-miterlimit="10" d="M28.544,46.337c0,0-0.1,24.9,0,28.101c0.1,3.199,4,4.5,4,4.5
	s9.9,0,12.7,0s4.7-4.7,4.7-4.7v-27.9H28.544z"/>
</svg>
