<?xml version="1.0" encoding="utf-8"?>
<!-- Generator: Adobe Illustrator 15.0.0, SVG Export Plug-In  -->
<!DOCTYPE svg PUBLIC "-//W3C//DTD SVG 1.1//EN" "http://www.w3.org/Graphics/SVG/1.1/DTD/svg11.dtd" [
	<!ENTITY ns_flows "http://ns.adobe.com/Flows/1.0/">
]>
<svg version="1.1"
	 xmlns="http://www.w3.org/2000/svg" xmlns:xlink="http://www.w3.org/1999/xlink" xmlns:a="http://ns.adobe.com/AdobeSVGViewerExtensions/3.0/"
	 x="0px" y="0px" width="80px" height="80px" viewBox="-0.027 0 80 80" enable-background="new -0.027 0 80 80"
	 xml:space="preserve">
<defs>
</defs>
<path fill="#AADEFF" stroke="#AADEFF" stroke-miterlimit="10" d="M76.173,46.5l-7.101,8.6l2.801,0.301c0,0-8.9,7.199-16.9,7.699
	c-8,0.4-11.9-10.199-11.9-10.199V35.1h10.7v-5.4h-10.2v-7.1l0,0c4.4-1.5,7.601-5.8,7.601-10.7c0-6.3-5-11.4-11.3-11.4h-0.1h-0.1
	c-6.3,0-11.4,5.1-11.4,11.4c0,5,3.2,9.2,7.7,10.7l0,0v7.1h-10.3v5.4h10.8v17.8c0,0-3.9,10.699-12,10.199s-17-7.699-17-7.699
	l2.9-0.301l-7.2-8.6l-2.5,10.4l3.2-0.7c0,0,6.2,10.7,15.4,14.899c9.2,4.2,18.7,9.4,20.6,9.7l0,0l0,0c1.9-0.3,11.2-5.5,20.4-9.7
	c9.2-4.199,15.3-14.899,15.3-14.899l3.101,0.7L76.173,46.5z M39.772,18.1h-0.1c-3.4,0-6.2-2.8-6.2-6.2s2.8-6.2,6.2-6.2h0.1h0.1
	c3.4,0,6.1,2.8,6.1,6.2s-2.7,6.2-6.1,6.2H39.772z"/>
</svg>
