<?xml version="1.0" encoding="utf-8"?>
<!-- Generator: Adobe Illustrator 15.0.0, SVG Export Plug-In  -->
<!DOCTYPE svg PUBLIC "-//W3C//DTD SVG 1.1//EN" "http://www.w3.org/Graphics/SVG/1.1/DTD/svg11.dtd" [
	<!ENTITY ns_flows "http://ns.adobe.com/Flows/1.0/">
]>
<svg version="1.1"
	 xmlns="http://www.w3.org/2000/svg" xmlns:xlink="http://www.w3.org/1999/xlink" xmlns:a="http://ns.adobe.com/AdobeSVGViewerExtensions/3.0/"
	 x="0px" y="0px" width="80px" height="80px" viewBox="-8.062 -1.753 80 80" enable-background="new -8.062 -1.753 80 80"
	 xml:space="preserve">
<defs>
</defs>
<path fill="#2C5987" d="M47.291,37.943c-1.51-2.729-2.95-5.334-4.498-8.134c8.544-3.769,15.273-0.544,21.565,5.012
	c-2.566-7.792-7.743-12.874-15.582-15.505c3.543-4.721,8.217-4.534,13.878-3.425c-7.849-7.016-15.363-5.77-24.111-0.886L40.415,0
	c-3.471,4.093-6.943,8.188-10.463,12.341c-6.868-5.381-14.468-7.003-23-3.719c6.35,1.391,12.008,3.655,14.733,10.138
	c-8.349,5.517-11.797,12.706-8.244,23.487c3.917-10.822,6.503-13.562,12.19-12.65c-2.114,9.13-0.232,16.875,8.262,22.625
	c-3.069-10.869-1.607-16.412,5.11-19.43c0.862,2.634,1.719,5.252,2.614,7.988L47.291,37.943L47.291,37.943L47.291,37.943z
	 M49.955,42.114l-6.842,3.369c0.339,1.387,0.648,3.199,0.904,4.607l10.913,3.248C53.575,49.536,51.445,44.489,49.955,42.114
	L49.955,42.114z M56.75,60.633c-0.056-0.363-0.511-2.109-0.575-2.475l-11.479-2.947c0.141,2.4,0.067,6-0.137,8.15L56.75,60.633
	L56.75,60.633z M43.763,67.704c-1.084,5.316-2.656,8.789-2.656,8.789h16.446c0,0,0.34-5.234-0.208-11.717L43.763,67.704
	L43.763,67.704z M32.601,76.493H3.371C1.509,76.493,0,74.959,0,73.067V52.502c0-1.895,1.509-3.428,3.371-3.428h14.063
	c0-0.027-0.01-0.047-0.01-0.074v-2.135c0-0.672,0.378-1.219,0.845-1.219h8.43c0.468,0,0.845,0.547,0.845,1.219V49
	c0,0.027-0.01,0.049-0.01,0.074h5.068c1.863,0,3.372,1.533,3.372,3.428v20.564C35.972,74.959,34.464,76.493,32.601,76.493
	L32.601,76.493L32.601,76.493z M25.856,47.477h-6.745v0.912h6.745V47.477L25.856,47.477L25.856,47.477z M17.986,52.502
	c-5.587,0-10.117,4.604-10.117,10.281c0,5.68,4.53,10.283,10.117,10.283c5.589,0,10.119-4.604,10.119-10.283
	C28.105,57.106,23.576,52.502,17.986,52.502L17.986,52.502L17.986,52.502z M17.986,69.639c-3.724,0-6.745-3.07-6.745-6.855
	s3.021-6.854,6.745-6.854c3.724,0,6.745,3.068,6.745,6.854C24.731,66.569,21.71,69.639,17.986,69.639L17.986,69.639L17.986,69.639z
	 M17.986,60.5c-1.242,0-2.249,1.023-2.249,2.283c0,1.264,1.007,2.285,2.249,2.285s2.25-1.021,2.25-2.285
	C20.236,61.524,19.228,60.5,17.986,60.5L17.986,60.5L17.986,60.5z"/>
</svg>
